<?xml version="1.0" standalone="no"?>
<!DOCTYPE svg PUBLIC "-//W3C//DTD SVG 20010904//EN"
 "http://www.w3.org/TR/2001/REC-SVG-20010904/DTD/svg10.dtd">
<svg version="1.0" xmlns="http://www.w3.org/2000/svg"
 width="1024.000000pt" height="1024.000000pt" viewBox="0 0 1024.000000 1024.000000"
 preserveAspectRatio="xMidYMid meet">
<metadata>
Created by potrace 1.14, written by Peter Selinger 2001-2017
</metadata>
<g transform="translate(0.000000,1024.000000) scale(0.100000,-0.100000)"
fill="#000000" stroke="none">
<path d="M2043 9112 c19 -20 18 -21 -5 -15 -12 3 -29 10 -36 16 -7 5 -15 7
-19 3 -3 -3 -1 -6 5 -6 7 0 12 -4 12 -8 0 -5 -10 -8 -22 -7 -13 2 -22 8 -20
14 1 7 -2 10 -8 6 -6 -3 -8 -11 -5 -16 4 -5 1 -9 -4 -9 -6 0 -11 5 -11 11 0 5
-5 7 -10 4 -6 -4 -7 -12 -4 -18 4 -7 4 -9 -1 -5 -4 4 -14 3 -22 -3 -9 -9 -17
-8 -27 0 -10 8 -16 9 -21 1 -3 -5 -11 -10 -16 -10 -6 0 -7 5 -3 12 4 7 3 8 -5
4 -6 -4 -9 -11 -6 -16 3 -4 -2 -10 -10 -14 -9 -3 -15 0 -15 9 0 7 -4 16 -9 19
-5 4 -7 -4 -3 -16 4 -18 2 -20 -17 -15 -18 4 -20 3 -10 -9 10 -12 9 -13 -6 -8
-12 5 -16 4 -12 -3 4 -7 -4 -10 -23 -8 -16 1 -27 -1 -24 -6 3 -5 -2 -9 -11 -9
-9 0 -14 -4 -11 -9 3 -5 -1 -11 -9 -14 -10 -4 -12 -1 -9 11 4 10 2 13 -3 7 -4
-6 -21 -16 -36 -23 -18 -8 -27 -18 -24 -26 6 -15 -19 -30 -34 -20 -5 3 -9 0
-9 -6 0 -6 -5 -8 -12 -4 -9 5 -8 2 1 -9 12 -15 12 -17 -4 -11 -14 6 -16 4 -10
-7 7 -11 5 -11 -10 1 -10 8 -16 10 -13 5 4 -6 -3 -22 -14 -35 -11 -14 -16 -19
-12 -11 5 9 3 12 -4 7 -7 -4 -12 -14 -12 -22 0 -8 -5 -14 -11 -14 -5 0 -7 -6
-3 -12 5 -8 1 -8 -12 2 -10 8 -16 11 -12 6 4 -5 2 -18 -4 -30 -7 -11 -11 -25
-10 -29 1 -4 -8 -2 -20 4 -22 11 -22 11 -8 -6 14 -17 13 -17 -10 -11 -20 6
-22 5 -8 -4 22 -14 12 -40 -13 -35 -16 3 -17 1 -9 -15 7 -13 7 -21 0 -25 -6
-4 -8 -10 -5 -15 3 -5 -3 -7 -14 -5 -24 5 -48 -20 -30 -31 8 -4 9 -3 5 4 -5 8
-1 10 10 5 14 -5 14 -7 -5 -17 -16 -9 -18 -15 -10 -23 8 -8 6 -11 -7 -10 -20
2 -26 -20 -12 -40 7 -8 2 -10 -14 -7 -13 2 -17 2 -10 -2 6 -3 12 -10 12 -15 0
-6 -4 -7 -10 -4 -5 3 -10 1 -10 -4 0 -6 4 -11 10 -11 5 0 2 -9 -7 -19 -20 -23
-27 -74 -10 -65 7 3 1 -4 -13 -16 -14 -12 -20 -19 -14 -16 7 3 14 -1 17 -9 4
-9 1 -12 -9 -8 -7 3 -14 0 -14 -6 0 -6 6 -11 13 -11 9 0 8 -3 -2 -9 -11 -7
-11 -9 0 -14 11 -4 11 -6 0 -6 -11 -1 -10 -5 5 -15 18 -14 18 -15 1 -21 -17
-7 -17 -8 0 -21 17 -13 17 -14 -2 -7 -18 6 -18 5 -6 -10 11 -14 11 -18 -3 -23
-9 -3 -13 -10 -10 -15 3 -5 11 -7 17 -3 7 3 3 -2 -7 -10 -11 -9 -17 -19 -13
-22 4 -4 1 -14 -6 -22 -10 -13 -9 -15 5 -9 10 3 20 1 24 -5 4 -7 3 -8 -4 -4
-7 4 -12 2 -12 -4 0 -6 -3 -9 -8 -7 -4 3 -7 -17 -7 -44 0 -39 3 -48 14 -44 13
5 13 3 0 -12 -9 -11 -15 -34 -14 -58 1 -22 -3 -44 -9 -48 -7 -5 -5 -7 4 -4 8
2 14 10 12 16 -1 7 2 10 8 6 7 -4 7 -13 -1 -26 -5 -11 -8 -25 -6 -32 2 -7 0
-20 -5 -29 -6 -13 -5 -18 4 -18 9 0 9 -3 0 -12 -15 -15 -15 -28 -1 -28 5 0 7
5 3 12 -4 7 -3 8 4 4 6 -4 9 -13 6 -21 -4 -8 -9 -13 -13 -11 -3 2 -6 -9 -6
-24 -1 -16 2 -27 5 -25 3 1 12 -4 20 -13 13 -14 12 -15 -3 -9 -12 4 -16 2 -14
-11 1 -9 6 -22 10 -29 4 -7 0 -16 -10 -22 -12 -7 -13 -10 -4 -11 11 0 11 -3 0
-17 -12 -14 -12 -16 2 -11 9 4 16 1 16 -8 0 -7 -5 -10 -10 -7 -6 4 -8 0 -4
-10 4 -10 1 -17 -5 -17 -7 0 -4 -6 7 -13 13 -10 15 -16 6 -21 -9 -6 -9 -11 0
-22 9 -11 8 -15 -5 -20 -15 -6 -15 -8 1 -21 10 -8 12 -12 6 -8 -17 8 -17 -7 0
-24 10 -11 9 -12 -2 -6 -11 6 -13 4 -8 -9 4 -10 3 -15 -3 -11 -6 3 -10 1 -10
-4 0 -6 6 -11 13 -11 8 0 7 -4 -3 -10 -13 -8 -12 -10 3 -10 9 0 17 -5 17 -11
0 -5 -4 -8 -9 -4 -5 3 -12 1 -16 -5 -3 -5 -1 -10 5 -10 6 0 8 -5 4 -12 -12
-19 -12 -48 -1 -48 6 0 7 -3 4 -7 -4 -3 -2 -12 4 -19 7 -8 6 -14 -2 -20 -8 -5
-9 -3 -4 6 5 8 4 11 -2 7 -13 -8 -9 -73 6 -91 9 -11 9 -16 0 -22 -8 -4 -9 -3
-5 4 5 8 1 10 -10 5 -15 -5 -15 -7 0 -15 9 -5 13 -14 9 -21 -11 -18 -10 -117
1 -117 6 0 5 -5 -2 -12 -15 -15 -15 -28 -1 -28 5 0 8 4 5 8 -3 5 1 9 9 9 11 0
12 -4 4 -14 -9 -10 -8 -17 2 -30 8 -9 9 -14 3 -10 -7 4 -17 0 -23 -7 -10 -11
-8 -15 6 -19 16 -4 16 -5 -2 -6 -18 -2 -18 -3 5 -17 14 -8 18 -13 10 -11 -12
4 -16 -3 -15 -27 0 -20 5 -30 13 -28 8 1 11 -2 7 -8 -3 -6 -11 -8 -16 -5 -5 4
-7 -9 -3 -30 3 -22 1 -42 -7 -51 -9 -11 -8 -14 7 -15 18 0 18 -1 -1 -9 -12 -5
-15 -9 -5 -9 11 -1 11 -4 2 -13 -19 -19 -14 -31 11 -25 21 6 21 6 3 -8 -19
-15 -33 -50 -15 -39 13 8 11 -10 -3 -24 -9 -9 -9 -12 2 -13 8 -1 19 -1 25 1 5
1 2 -7 -8 -17 -16 -18 -16 -20 1 -38 16 -18 16 -18 -2 -4 -18 12 -19 12 -14
-2 4 -9 1 -22 -5 -29 -9 -10 -9 -11 1 -6 6 4 12 2 12 -3 0 -6 -6 -11 -12 -11
-9 0 -8 -3 2 -9 8 -6 19 -7 25 -4 5 4 2 -3 -8 -14 -18 -21 -18 -22 0 -33 17
-11 17 -11 -1 -6 -13 5 -17 2 -13 -8 3 -8 3 -17 -1 -20 -10 -11 -9 -65 1 -59
6 4 8 0 4 -9 -3 -9 0 -21 6 -28 9 -10 9 -11 0 -6 -16 9 -22 -14 -11 -43 7 -20
6 -22 -9 -17 -17 6 -17 5 0 -8 17 -14 24 -32 8 -22 -13 8 -8 -19 7 -37 10 -12
10 -17 1 -23 -8 -4 -9 -3 -5 4 5 8 1 10 -10 5 -15 -5 -15 -7 0 -15 9 -5 13
-14 9 -21 -10 -17 -11 -47 -1 -47 5 0 4 -8 -1 -19 -6 -10 -7 -21 -3 -25 3 -4
0 -11 -8 -16 -9 -6 -10 -10 -3 -10 6 0 15 5 18 10 3 6 11 10 17 10 6 0 1 -9
-12 -20 -15 -13 -18 -20 -9 -20 11 0 11 -2 -1 -10 -12 -8 -12 -10 -1 -10 11 0
11 -3 0 -17 -12 -15 -12 -16 3 -10 10 3 20 2 23 -4 4 -5 1 -8 -7 -7 -7 2 -12
-3 -10 -11 2 -8 -3 -18 -10 -22 -10 -7 -10 -9 1 -9 11 0 11 -3 0 -17 -12 -14
-12 -16 0 -8 11 6 13 4 8 -7 -3 -9 0 -21 6 -28 9 -10 9 -11 0 -6 -16 9 -22
-14 -11 -43 7 -20 6 -22 -9 -17 -11 4 -9 -1 7 -14 14 -11 20 -19 13 -18 -6 2
-11 -1 -11 -7 0 -5 5 -9 11 -7 7 2 6 -2 -1 -11 -7 -8 -8 -18 -4 -22 4 -5 1 -5
-6 -1 -7 4 -9 12 -6 18 4 7 2 8 -4 4 -12 -7 -5 -36 10 -36 13 0 5 -33 -12 -48
-8 -8 -9 -11 -2 -7 7 4 12 0 12 -9 0 -9 5 -16 10 -16 6 0 10 -4 10 -9 0 -5
-10 -7 -22 -4 -21 4 -21 3 -5 -7 18 -11 18 -13 1 -32 -13 -14 -14 -19 -4 -16
7 2 15 -6 17 -17 3 -15 2 -17 -6 -6 -7 10 -9 7 -8 -12 1 -15 4 -27 7 -27 3 0
6 -11 6 -25 1 -14 -1 -23 -5 -21 -3 2 -7 -7 -7 -20 -1 -14 4 -24 11 -24 8 0
16 -4 19 -9 3 -5 -1 -8 -10 -7 -10 0 -18 -8 -21 -24 -3 -19 -1 -22 9 -12 6 6
17 12 22 12 7 0 8 -3 1 -8 -5 -4 -17 -16 -25 -26 -14 -18 -13 -19 4 -12 19 7
19 6 1 -14 -14 -15 -15 -20 -4 -20 11 0 11 -2 -1 -10 -12 -8 -12 -10 5 -11
l20 0 -20 -9 c-12 -5 -15 -9 -6 -9 12 -1 12 -4 3 -13 -17 -17 -15 -28 6 -29
14 0 14 -2 2 -7 -16 -8 -20 -49 -6 -71 6 -10 5 -12 -2 -7 -7 4 -12 2 -12 -3 0
-6 5 -11 12 -11 9 0 9 -3 1 -11 -8 -8 -9 -20 -2 -36 6 -17 6 -30 -2 -39 -9
-11 -8 -14 7 -14 17 0 17 -1 -2 -15 -13 -10 -15 -17 -8 -22 14 -10 14 -44 0
-36 -6 4 -2 -4 8 -16 20 -22 20 -22 0 -15 -17 7 -18 6 -4 -11 9 -11 10 -16 3
-11 -7 4 -13 2 -13 -3 0 -6 5 -11 11 -11 6 0 7 -5 2 -12 -10 -17 -4 -61 11
-70 8 -6 8 -8 -1 -8 -7 0 -10 -7 -7 -15 5 -11 1 -14 -12 -9 -16 5 -16 4 -4 -5
17 -12 20 -29 8 -53 -5 -10 -5 -18 -1 -18 5 0 8 -14 8 -30 1 -23 -3 -29 -13
-25 -12 4 -12 3 -3 -9 7 -8 20 -12 29 -9 14 6 15 5 2 -9 -8 -9 -18 -14 -22
-12 -4 2 -10 0 -13 -6 -4 -6 -1 -9 6 -8 6 2 14 -3 16 -10 3 -6 -1 -10 -9 -9
-7 2 -10 2 -5 0 4 -3 4 -10 0 -16 -4 -7 0 -8 13 -4 18 7 18 7 0 -8 -14 -11
-16 -15 -5 -15 12 0 12 -2 -1 -10 -12 -8 -12 -10 -1 -10 11 0 11 -3 0 -17 -10
-12 -11 -15 -1 -9 9 6 11 1 8 -19 -3 -15 -8 -30 -10 -33 -3 -3 0 -12 7 -20 10
-13 9 -15 -7 -9 -16 6 -17 5 -6 -8 7 -8 17 -12 24 -8 6 4 4 -1 -4 -11 -16 -20
-21 -96 -6 -96 5 0 6 -3 3 -7 -4 -3 -1 -13 6 -21 8 -10 8 -13 1 -9 -7 4 -14 0
-18 -8 -3 -8 -2 -15 3 -15 13 0 4 -52 -11 -61 -7 -5 -8 -9 -2 -9 5 0 15 5 22
12 7 7 12 9 12 6 0 -4 -7 -14 -16 -22 -9 -9 -11 -16 -4 -16 6 0 8 -5 3 -13
-11 -17 -13 -38 -3 -32 4 3 11 -2 14 -11 3 -8 2 -13 -3 -10 -5 3 -8 -12 -7
-34 1 -22 0 -43 -3 -45 -8 -9 -8 -44 1 -39 10 6 11 -10 1 -20 -9 -9 -11 -46
-2 -41 3 3 9 -7 12 -22 5 -25 4 -26 -8 -9 -13 18 -14 17 -12 -3 1 -20 9 -25
32 -22 6 1 0 -7 -12 -18 l-22 -18 22 -12 c12 -6 14 -9 5 -7 -12 3 -15 1 -11
-9 3 -8 -2 -18 -11 -21 -15 -6 -15 -8 1 -19 10 -7 22 -11 27 -8 5 4 6 1 2 -6
-4 -6 -12 -9 -17 -5 -10 6 -3 -51 8 -70 4 -7 1 -6 -8 1 -12 9 -14 6 -14 -18
-1 -20 3 -28 12 -25 7 3 15 0 19 -7 4 -7 4 -9 -1 -5 -9 9 -35 -9 -35 -23 0 -5
5 -9 11 -9 5 0 7 5 3 12 -5 7 -3 8 5 4 9 -6 9 -12 -3 -24 -20 -23 -20 -32 1
-47 10 -7 15 -17 10 -21 -4 -4 -7 -1 -7 7 0 12 -2 12 -9 0 -6 -10 -4 -19 8
-30 9 -9 10 -11 2 -6 -11 8 -13 6 -9 -6 4 -9 1 -22 -5 -29 -7 -7 -7 -10 -2 -8
6 3 17 -1 25 -10 13 -14 12 -15 -3 -9 -20 8 -22 -3 -4 -22 10 -11 9 -13 -4 -8
-9 3 -16 0 -16 -9 0 -10 7 -12 21 -8 19 6 18 4 -4 -15 -14 -13 -19 -20 -12
-16 6 3 12 1 12 -5 0 -6 6 -8 13 -4 7 4 9 3 4 -2 -5 -5 -13 -10 -18 -10 -23
-3 -23 -6 1 -20 21 -13 22 -15 4 -11 -13 3 -21 -1 -21 -9 0 -7 3 -12 6 -10 3
2 12 -2 19 -10 9 -10 9 -14 1 -14 -8 0 -8 -4 1 -15 11 -13 10 -14 -4 -9 -11 4
-15 13 -11 23 5 13 4 13 -6 4 -10 -10 -9 -17 7 -34 10 -13 14 -19 8 -16 -7 4
-14 -2 -17 -14 -4 -16 -3 -18 8 -9 10 8 15 8 21 -1 4 -8 3 -9 -4 -5 -7 4 -12
3 -12 -3 0 -5 5 -13 10 -16 16 -10 0 -27 -19 -21 -9 4 -7 -2 8 -14 13 -11 18
-20 11 -20 -9 0 -9 -4 1 -17 13 -16 12 -17 -3 -4 -10 7 -15 18 -11 25 3 6 2 8
-2 3 -11 -9 -14 -48 -4 -42 4 3 10 -2 13 -11 8 -21 8 -24 -5 -24 -5 0 -7 6 -3
13 4 6 3 8 -1 4 -14 -12 -15 -39 -1 -34 6 3 12 -3 12 -14 0 -11 -4 -15 -11 -9
-6 5 -11 0 -11 -16 -1 -13 2 -24 8 -24 5 0 6 5 2 12 -4 6 -3 8 3 5 11 -7 10
-43 -2 -54 -4 -5 -5 -2 -1 5 4 6 3 12 -3 12 -5 0 -9 -9 -8 -20 1 -23 8 -25 27
-7 12 10 12 9 2 -4 -6 -9 -8 -20 -4 -24 4 -5 -1 -5 -10 -2 -16 6 -17 4 -8 -38
5 -23 -1 -36 -13 -29 -9 5 -9 3 1 -7 11 -12 14 -12 22 1 6 9 10 10 10 3 0 -6
-6 -18 -13 -25 -15 -15 -18 -68 -3 -68 6 0 5 -5 -2 -12 -15 -15 -15 -28 -1
-28 5 0 7 5 3 12 -5 7 -3 8 5 4 9 -6 9 -12 -3 -25 -9 -10 -16 -22 -16 -27 0
-5 5 -2 10 6 9 13 10 13 10 -1 0 -8 -6 -21 -13 -28 -9 -11 -9 -13 1 -7 16 9
16 -6 0 -23 -10 -11 -10 -13 -1 -7 9 5 13 0 13 -13 0 -12 6 -21 13 -21 6 0 4
-5 -5 -11 -23 -13 -23 -30 -1 -23 14 5 15 4 4 -4 -8 -6 -10 -15 -6 -22 5 -8 4
-11 -3 -6 -6 3 -14 1 -18 -5 -4 -8 -3 -9 4 -5 7 4 12 1 12 -8 0 -8 -3 -16 -8
-19 -4 -2 -2 -2 5 -1 6 2 17 -5 25 -14 9 -11 10 -14 0 -8 -22 13 -37 -6 -17
-21 14 -9 15 -13 4 -13 -12 0 -12 -2 1 -10 12 -8 12 -10 -5 -10 -18 -1 -18 -2
3 -10 12 -5 22 -12 22 -15 0 -4 -4 -4 -9 -1 -5 3 -11 -1 -15 -9 -3 -8 0 -15 7
-15 8 0 6 -4 -3 -10 -10 -6 -11 -10 -2 -10 6 0 12 -5 12 -11 0 -6 -8 -9 -17
-5 -12 4 -10 0 5 -10 12 -9 22 -22 22 -28 0 -6 -4 -4 -10 4 -5 8 -12 11 -16 7
-4 -3 -1 -13 6 -22 10 -12 10 -15 -1 -15 -12 0 -12 -2 0 -9 11 -7 11 -9 0 -14
-12 -5 -12 -6 0 -6 9 -1 8 -6 -6 -18 -10 -10 -14 -15 -9 -10 15 11 28 8 20 -5
-12 -18 -11 -78 0 -78 6 0 4 -5 -4 -10 -10 -6 -11 -10 -2 -10 6 0 12 -5 12
-11 0 -5 -4 -8 -8 -5 -5 3 -9 -1 -9 -9 0 -8 4 -12 9 -9 4 3 8 -1 8 -10 0 -8
-5 -16 -12 -18 -9 -3 -9 -6 0 -12 7 -4 12 -2 12 3 0 6 4 11 10 11 5 0 6 -7 3
-17 -5 -12 -3 -14 8 -9 8 4 6 1 -4 -7 -15 -13 -17 -19 -7 -37 6 -12 17 -19 24
-17 13 5 15 -38 1 -50 -4 -5 -5 -2 0 6 5 9 4 12 -3 7 -6 -4 -8 -14 -5 -23 4
-11 8 -13 11 -5 6 18 16 15 30 -9 8 -12 9 -18 3 -14 -6 3 -11 1 -11 -4 0 -6 5
-11 10 -11 6 0 10 -7 10 -16 0 -8 5 -12 11 -8 8 5 8 1 0 -14 -13 -24 6 -44 20
-21 6 9 9 10 9 2 0 -6 -5 -15 -11 -19 -7 -4 -1 -13 15 -23 20 -14 23 -20 13
-30 -9 -10 -8 -11 6 -6 19 8 24 -10 5 -19 -7 -4 -4 -5 8 -2 12 2 21 -2 21 -10
0 -7 -5 -10 -10 -7 -6 3 -7 1 -3 -5 4 -7 14 -12 22 -12 8 0 14 -5 14 -11 0 -5
4 -7 10 -4 6 3 7 -1 4 -10 -5 -12 -2 -14 12 -8 17 6 18 5 4 -12 -14 -17 -14
-18 6 -7 16 9 21 8 21 -3 0 -8 -5 -11 -10 -8 -6 3 -7 1 -3 -5 4 -7 12 -12 17
-12 5 0 15 -5 22 -10 7 -6 21 -18 32 -26 11 -9 14 -12 6 -8 -10 5 -12 3 -6 -5
4 -7 16 -10 27 -8 14 4 17 2 9 -7 -7 -8 -4 -16 12 -26 20 -12 21 -12 8 4 -12
14 -12 16 3 10 9 -3 16 -10 16 -16 0 -5 6 -6 12 -3 7 4 4 -1 -6 -9 -22 -18
-14 -21 14 -6 13 7 21 5 31 -8 12 -15 12 -16 -2 -5 -13 10 -16 10 -16 -1 0
-14 14 -16 34 -3 6 4 17 0 25 -10 7 -10 19 -18 26 -19 29 -2 33 -5 26 -15 -5
-8 -1 -8 14 0 28 15 37 14 23 -3 -10 -12 -8 -14 11 -9 18 4 20 3 8 -6 -12 -9
-11 -11 7 -8 12 2 25 6 29 10 4 3 14 -2 23 -11 9 -10 12 -11 6 -3 -8 13 -6 13
16 -1 17 -11 30 -13 41 -7 11 6 19 5 23 -1 7 -12 26 -14 23 -2 -2 4 2 8 7 8 6
1 9 -2 7 -7 -3 -13 16 -11 24 3 5 8 11 6 20 -6 11 -16 13 -16 24 1 9 13 10 14
7 2 -4 -12 1 -17 16 -18 12 0 33 -2 47 -4 14 -2 31 1 38 6 8 6 12 5 12 -4 0
-8 6 -5 15 7 11 14 14 15 9 3 -4 -13 0 -17 19 -15 14 0 23 4 21 7 -2 4 3 9 11
13 8 3 17 1 21 -5 3 -6 13 -8 21 -5 8 3 12 2 9 -3 -3 -4 9 -7 27 -6 22 1 31 6
29 16 -1 9 3 7 13 -5 11 -14 15 -16 15 -5 0 12 2 12 9 0 7 -11 9 -11 14 0 5
12 6 12 6 0 1 -11 4 -11 18 0 13 11 17 11 20 2 3 -7 9 -13 14 -13 6 0 8 3 6 8
-3 4 5 7 18 7 13 0 21 -3 19 -6 -1 -3 4 -6 12 -6 9 0 13 6 9 15 -5 13 -3 13
11 1 16 -13 114 -20 114 -8 0 3 -6 11 -12 19 -8 9 -5 8 7 -1 11 -9 26 -14 34
-11 9 3 11 0 6 -8 -6 -9 -4 -11 6 -5 18 12 49 14 49 3 0 -4 5 -8 11 -8 5 0 7
5 3 12 -4 7 -3 8 5 4 18 -11 61 -15 55 -5 -3 5 0 9 5 9 6 0 11 -5 11 -11 0 -8
5 -8 15 1 10 9 15 9 15 1 0 -6 7 -11 15 -11 8 0 15 5 15 11 0 5 -5 7 -12 3 -7
-5 -8 -3 -4 5 6 9 12 9 25 -3 10 -9 22 -16 27 -16 5 0 2 5 -6 10 -9 6 -10 10
-3 10 6 0 15 -5 19 -11 4 -8 9 -7 16 2 7 11 11 11 15 2 2 -7 9 -13 14 -13 6 0
7 6 3 13 -5 7 0 6 11 -3 17 -14 18 -13 11 5 -6 17 -4 17 18 -4 23 -22 31 -21
27 1 0 5 3 8 9 8 5 0 10 -5 10 -11 0 -8 4 -8 14 0 11 10 17 8 26 -6 10 -16 11
-16 6 0 -3 9 -1 17 4 17 6 0 10 -5 10 -11 0 -8 5 -8 15 1 14 12 19 7 16 -13
-1 -5 3 -6 9 -2 6 3 8 11 5 16 -4 5 -1 9 4 9 6 0 11 -5 11 -11 0 -8 5 -8 15 1
10 9 15 9 15 1 0 -6 5 -11 11 -11 5 0 7 5 3 11 -4 8 -1 8 12 2 23 -11 65 -11
82 0 7 5 12 3 12 -4 0 -8 4 -8 15 1 12 10 15 10 16 -1 0 -8 4 -5 9 6 7 16 9
17 9 3 1 -9 6 -20 13 -24 7 -5 8 -3 3 6 -6 10 -1 11 21 6 28 -7 28 -7 9 8
l-20 16 20 -6 c11 -4 27 -16 36 -27 12 -15 18 -17 24 -7 5 8 4 11 -2 7 -6 -4
-13 0 -16 7 -4 11 1 14 21 11 15 -1 26 -8 24 -15 -1 -6 2 -9 8 -5 6 3 8 11 5
16 -4 5 -1 9 4 9 6 0 11 -5 11 -12 0 -6 10 -3 22 8 12 10 18 14 14 7 -4 -7 2
-17 13 -23 16 -8 19 -8 16 3 -4 8 3 13 15 14 12 1 18 -2 14 -9 -5 -7 -2 -8 7
-3 19 12 49 14 49 3 0 -10 51 -5 69 7 6 3 11 1 11 -5 0 -12 37 -10 58 3 7 5
12 4 12 -2 0 -6 5 -11 11 -11 5 0 7 6 3 13 -5 7 0 6 11 -3 17 -14 18 -13 12 2
-4 12 -2 15 9 11 7 -3 14 -10 14 -17 0 -6 5 -4 10 4 6 10 10 11 10 3 0 -7 5
-13 11 -13 5 0 7 4 4 10 -4 6 2 7 18 1 16 -6 28 -6 36 2 8 8 11 8 11 0 0 -6
11 -10 24 -9 18 1 22 4 14 14 -8 9 -7 11 6 6 9 -3 16 -11 16 -18 0 -6 5 -4 10
4 5 8 10 10 10 4 0 -7 7 -15 16 -18 13 -5 14 -3 6 6 -8 10 -5 13 14 13 13 0
24 -4 24 -10 0 -5 5 -3 10 5 6 10 10 11 10 3 0 -18 43 -11 52 7 5 11 7 10 7
-5 1 -17 3 -17 11 -5 6 10 10 11 10 3 0 -7 5 -13 11 -13 5 0 7 4 4 10 -4 7 2
7 19 0 16 -6 27 -6 31 1 4 5 12 6 18 2 22 -13 39 -12 33 3 -7 18 -1 18 18 -2
12 -12 16 -12 17 -2 0 7 4 4 9 -7 7 -16 9 -17 9 -3 1 13 7 15 29 9 15 -5 26
-14 24 -20 -1 -7 2 -10 7 -6 6 3 8 11 5 19 -3 7 2 13 10 13 8 0 13 -3 11 -7
-2 -4 3 -7 11 -7 8 0 13 6 10 13 -3 8 0 11 10 7 7 -3 14 -10 14 -17 0 -6 5 -4
10 4 5 8 10 10 10 4 0 -7 7 -15 16 -18 14 -5 15 -4 4 9 -11 14 -10 14 13 6 17
-7 28 -7 32 0 4 5 12 6 18 2 22 -13 39 -12 33 3 -7 18 -1 18 18 -2 12 -12 16
-12 17 -2 0 7 4 4 9 -7 8 -18 9 -18 9 -2 1 10 5 16 9 13 5 -3 30 -7 56 -10 40
-3 46 -2 41 11 -4 13 -3 14 10 3 8 -7 15 -10 15 -6 0 3 11 1 25 -4 16 -6 27
-6 31 2 5 7 12 5 21 -7 7 -11 13 -13 13 -7 0 8 10 11 26 8 21 -4 25 -2 19 12
-5 13 -3 14 6 5 6 -6 17 -9 24 -6 7 2 15 -4 18 -14 4 -15 5 -15 6 -1 1 13 6
15 30 8 19 -5 33 -4 40 3 8 8 11 8 11 0 0 -11 50 -10 69 1 6 4 11 3 11 -2 0
-11 40 -10 58 1 7 5 12 3 12 -3 0 -7 7 -9 17 -6 9 4 21 1 26 -6 6 -9 7 -8 3 5
-5 15 -2 17 14 13 11 -3 30 -9 42 -12 17 -5 20 -3 14 11 -5 14 -4 16 7 7 8 -7
17 -9 20 -5 4 3 7 2 7 -3 0 -5 9 -10 19 -10 11 0 17 4 15 8 -3 4 2 8 11 8 9 0
14 -4 10 -9 -3 -5 0 -13 6 -17 7 -4 9 -3 6 3 -4 6 0 13 8 17 8 3 15 0 15 -6 0
-9 3 -9 12 0 14 14 32 16 24 3 -9 -14 19 -7 40 9 10 8 15 10 11 4 -4 -7 3 -14
18 -16 13 -3 22 -1 19 3 -3 5 0 9 5 9 6 0 11 -4 11 -8 0 -5 7 -9 15 -9 8 0 12
4 9 9 -3 4 0 8 5 8 6 0 11 -4 11 -10 0 -5 5 -10 11 -10 5 0 8 4 4 9 -3 5 -1
13 5 16 6 4 9 2 8 -3 -2 -6 2 -10 7 -10 6 0 9 5 7 12 -1 6 4 3 12 -7 14 -18
14 -18 19 0 4 16 5 16 6 1 0 -10 6 -18 12 -18 5 0 7 6 3 13 -6 9 -4 9 8 -1 12
-9 18 -10 23 -2 5 8 12 5 21 -7 13 -17 14 -17 8 1 -6 16 -4 17 13 8 14 -8 23
-8 31 0 8 8 12 8 12 2 0 -18 42 -9 57 12 14 18 14 18 11 0 -2 -10 3 -21 11
-24 10 -3 12 0 8 12 -5 12 -3 15 6 9 31 -20 96 -22 107 -4 6 10 10 11 10 4 0
-7 7 -13 16 -13 8 0 12 5 9 10 -3 6 -1 10 4 10 6 0 11 -8 12 -17 0 -11 3 -13
6 -6 3 10 10 10 25 2 15 -8 19 -8 14 0 -4 6 -2 11 3 11 6 0 11 -6 11 -12 0 -9
4 -8 10 2 8 13 10 13 10 1 0 -12 3 -12 12 -3 14 14 32 16 24 3 -7 -10 20 -9
30 2 4 4 13 -1 21 -11 12 -16 13 -16 7 2 -6 16 -4 17 14 7 14 -7 23 -8 27 -1
3 5 11 10 16 10 6 0 8 -4 5 -9 -7 -10 20 -9 30 2 12 12 26 8 18 -5 -4 -6 -3
-8 4 -4 5 3 12 1 14 -6 3 -7 7 -5 11 6 5 11 3 15 -5 10 -7 -5 -8 -3 -3 5 5 9
11 9 17 3 6 -6 17 -8 24 -5 8 3 14 1 14 -5 0 -5 7 -13 16 -16 15 -6 15 -4 3
11 -7 10 -9 15 -5 11 5 -4 16 -2 24 5 10 7 13 8 9 1 -4 -7 3 -14 18 -16 13 -3
22 -1 19 3 -3 5 0 9 5 9 6 0 11 -5 11 -11 0 -8 5 -8 15 1 11 9 15 9 15 1 0 -7
5 -9 11 -6 6 4 8 14 5 22 -3 8 -1 11 4 8 6 -3 10 -14 10 -23 0 -15 2 -15 10
-2 9 13 10 13 10 0 0 -13 1 -13 10 0 9 13 10 13 10 0 1 -9 6 -6 14 9 11 20 14
21 19 7 4 -10 3 -15 -3 -11 -6 3 -10 1 -10 -4 0 -11 35 -10 46 2 4 4 13 -1 21
-11 12 -16 13 -16 7 2 -6 16 -4 17 14 7 15 -8 23 -8 28 0 5 8 12 6 22 -7 13
-16 14 -17 9 -2 -7 20 -2 21 28 9 11 -5 25 -4 33 1 8 7 12 7 12 -1 0 -6 5 -11
11 -11 5 0 8 4 4 9 -3 5 -1 13 5 16 6 4 9 1 8 -6 -2 -6 7 -12 19 -14 12 -1 20
2 17 6 -2 4 0 10 6 14 5 3 10 -2 10 -12 0 -15 2 -16 10 -3 8 12 10 12 10 1 0
-11 3 -11 15 -1 12 10 15 10 15 -1 1 -9 5 -8 15 5 15 20 15 20 15 0 0 -16 2
-17 10 -4 8 12 10 12 10 1 0 -11 3 -11 15 -1 10 8 15 9 15 2 0 -6 7 -9 15 -6
8 4 12 11 8 18 -4 7 -1 7 9 -1 8 -7 18 -10 21 -6 4 3 7 2 7 -3 0 -5 12 -10 27
-11 19 -1 22 1 12 8 -11 7 -11 9 3 9 9 0 21 -7 26 -16 8 -15 10 -15 15 0 5 11
3 15 -5 10 -7 -5 -8 -3 -3 5 5 9 11 9 17 3 6 -6 16 -8 23 -5 7 2 15 -4 18 -14
4 -16 5 -16 6 -1 1 14 6 16 25 8 15 -5 27 -5 35 3 8 8 11 7 12 -4 0 -9 4 -6 9
6 l9 20 0 -20 c1 -17 3 -17 11 -5 6 10 10 11 10 3 0 -7 5 -13 11 -13 5 0 7 5
3 12 -5 7 -3 8 7 2 18 -11 69 -12 63 -2 -3 4 0 8 5 8 6 0 11 -4 11 -10 0 -5 5
-10 11 -10 5 0 8 4 4 9 -3 5 -1 13 5 16 6 4 9 1 8 -6 -2 -6 7 -12 19 -14 12
-1 20 2 17 7 -3 4 0 8 5 8 6 0 11 -4 11 -8 0 -10 30 -9 48 2 7 4 12 2 12 -6 1
-7 7 -2 16 12 12 20 14 21 9 4 -4 -18 -1 -21 24 -21 27 0 29 2 13 14 -16 12
-15 13 3 7 11 -4 26 -14 33 -22 7 -10 12 -11 12 -4 0 8 10 11 26 8 20 -4 24
-2 20 11 -5 13 -4 14 9 3 8 -7 15 -9 15 -4 0 5 8 0 17 -11 14 -18 15 -18 9 -1
-5 14 -2 17 10 12 9 -4 23 -1 31 6 8 6 13 7 12 2 -4 -23 3 -26 22 -8 13 12 19
14 17 5 -2 -7 3 -16 11 -19 10 -3 12 0 7 14 -6 15 -4 16 5 7 6 -6 18 -9 27 -6
9 4 13 2 9 -4 -8 -12 11 -12 30 0 6 4 13 1 16 -5 4 -10 7 -11 18 0 15 14 30
16 27 3 -2 -5 2 -9 7 -9 6 0 9 4 8 8 -1 4 4 11 12 14 10 3 12 0 8 -12 -5 -15
-3 -14 16 2 24 22 61 29 61 12 0 -6 5 -4 10 4 6 10 10 11 10 3 0 -7 5 -13 11
-13 5 0 7 6 3 12 -5 10 -4 10 6 1 14 -13 39 -6 58 16 8 9 11 10 7 3 -4 -8 1
-11 16 -9 13 2 25 12 29 22 6 16 7 16 23 1 10 -11 17 -13 17 -6 0 7 7 9 16 6
8 -3 12 -2 9 4 -3 6 -3 15 1 22 5 7 12 5 22 -8 14 -18 14 -18 8 3 -4 12 -2 24
5 29 8 4 9 3 5 -4 -5 -8 -1 -11 11 -9 33 7 53 19 47 29 -4 5 4 8 16 6 28 -4
39 18 13 26 -10 2 -4 4 12 3 20 -1 29 3 27 11 -1 7 11 15 28 19 22 4 29 10 25
21 -4 12 -3 13 10 2 13 -11 14 -10 9 4 -4 11 -2 16 7 14 8 -2 13 3 11 10 -1 8
2 11 7 8 5 -3 11 4 14 15 4 15 11 20 23 15 12 -5 15 -2 10 9 -3 9 -2 14 3 11
13 -9 37 27 35 52 -1 16 2 20 11 12 9 -7 16 -5 26 7 8 9 9 14 3 10 -7 -4 -14
0 -17 8 -4 10 -1 12 10 8 13 -5 15 -2 10 11 -5 11 -3 15 5 10 8 -5 9 -2 4 11
-6 16 -4 16 11 4 11 -9 14 -10 9 -1 -4 6 -3 12 3 12 5 0 8 8 6 18 -1 9 7 24
18 34 17 13 19 19 8 31 -10 13 -9 15 8 10 13 -3 21 -1 21 6 0 7 -4 10 -9 6 -5
-3 -13 -1 -16 5 -4 6 -1 9 7 8 8 -2 13 6 12 19 -1 14 3 20 12 16 8 -3 14 0 14
6 0 6 -4 11 -8 11 -5 0 -9 7 -9 15 0 11 3 12 14 3 11 -9 12 -6 3 17 -9 24 -9
26 4 16 12 -10 14 -9 12 4 -1 9 -9 21 -17 27 -11 8 -11 9 3 4 10 -3 20 -1 23
4 4 6 0 10 -7 10 -8 0 -15 10 -15 22 -2 16 0 19 6 9 7 -11 10 -11 17 0 12 20
14 40 3 33 -5 -3 -9 0 -9 5 0 6 6 11 13 11 8 0 7 4 -3 10 -13 9 -13 10 0 10
13 0 13 1 0 10 -10 6 -11 10 -2 10 6 0 12 5 12 11 0 5 -4 8 -8 5 -5 -3 -9 2
-9 10 0 9 6 13 16 9 9 -3 5 4 -9 15 -15 12 -18 18 -7 14 9 -3 17 -1 17 5 0 6
-6 11 -12 11 -9 0 -8 4 2 10 10 6 11 10 3 10 -7 0 -13 5 -13 11 0 5 5 7 10 4
6 -3 10 -2 10 4 0 5 -8 15 -17 21 -15 10 -14 11 7 6 24 -5 24 -4 6 9 -14 11
-16 15 -5 15 9 0 10 3 3 8 -13 8 -13 50 -1 70 5 7 3 12 -6 12 -7 0 -14 7 -14
15 0 10 4 12 12 5 8 -6 11 -2 11 15 0 14 -3 25 -6 25 -15 0 -5 30 9 31 10 0 8
4 -7 9 -12 5 -22 12 -22 15 0 4 4 4 9 0 5 -3 12 -1 16 5 3 5 1 10 -4 10 -6 0
-11 5 -11 11 0 5 5 7 10 4 13 -8 8 18 -5 27 -6 5 -4 8 5 8 13 0 13 1 0 10 -13
9 -13 10 0 10 13 0 13 1 0 10 -10 6 -11 10 -2 10 6 0 12 5 12 10 0 6 -6 10
-13 10 -8 0 -14 7 -14 15 0 10 4 12 12 5 8 -6 11 -2 11 15 0 14 -4 25 -10 25
-5 0 -6 3 -3 6 3 4 1 16 -5 28 -10 18 -9 19 3 9 13 -10 15 -8 15 12 0 14 -3
25 -6 25 -15 0 -5 30 9 31 10 0 8 4 -6 9 -13 5 -23 12 -23 15 0 4 4 4 9 0 5
-3 12 -1 16 5 3 5 1 10 -4 10 -6 0 -11 5 -11 11 0 5 5 7 10 4 13 -8 8 18 -5
27 -6 5 -4 8 5 8 13 0 13 1 0 10 -13 9 -13 10 0 10 13 0 13 1 0 10 -10 6 -11
10 -2 10 6 0 12 5 12 11 0 5 -5 7 -12 3 -7 -5 -8 -3 -2 7 10 17 14 59 5 59 -4
0 -7 9 -8 20 -1 11 2 18 8 15 5 -4 9 -2 9 4 0 5 -8 15 -17 21 -15 10 -14 11 7
6 24 -5 24 -4 6 9 -14 11 -16 15 -5 15 9 0 10 3 3 8 -13 8 -13 50 -1 70 5 7 3
12 -6 12 -7 0 -14 7 -14 15 0 10 4 12 12 5 8 -6 11 -2 11 15 0 14 -3 25 -6 25
-15 0 -5 30 9 31 10 0 8 4 -6 9 -13 5 -23 12 -23 15 0 4 4 4 9 0 5 -3 12 -1
16 5 3 5 1 10 -4 10 -6 0 -11 5 -11 11 0 5 5 7 10 4 13 -8 8 18 -5 27 -6 5 -4
8 5 8 13 0 13 1 0 10 -13 9 -13 10 0 10 13 0 13 1 0 10 -10 6 -11 10 -2 10 6
0 12 5 12 11 0 5 -5 7 -12 3 -7 -5 -8 -3 -2 7 10 17 14 59 5 59 -4 0 -7 9 -8
20 -1 11 2 18 8 15 5 -4 9 -2 9 4 0 5 -8 15 -17 21 -15 10 -14 11 7 6 24 -5
24 -4 6 9 -14 11 -16 15 -5 15 9 0 10 3 3 8 -13 8 -13 50 -1 69 5 8 3 13 -6
13 -7 0 -14 7 -14 15 0 10 4 12 12 5 8 -6 11 -2 11 15 0 14 -3 25 -6 25 -15 0
-5 30 9 31 10 0 8 4 -6 9 -13 5 -23 12 -23 15 0 4 4 4 9 0 5 -3 12 -1 16 5 3
5 1 10 -4 10 -6 0 -11 5 -11 11 0 5 5 7 10 4 13 -8 8 18 -5 27 -6 5 -4 8 5 8
13 0 13 1 0 10 -13 9 -13 10 0 10 13 0 13 1 0 10 -10 6 -11 10 -2 10 6 0 12 5
12 10 0 6 -6 10 -13 10 -8 0 -14 7 -14 15 0 10 4 12 12 5 8 -6 11 -2 11 15 0
14 -4 25 -10 25 -5 0 -6 3 -3 6 3 4 1 16 -5 28 -10 18 -9 19 3 9 13 -10 15 -8
15 12 0 14 -3 25 -6 25 -15 0 -5 30 9 31 10 0 8 4 -6 9 -13 5 -23 12 -23 15 0
4 4 4 9 0 5 -3 12 -1 16 5 3 5 1 10 -4 10 -6 0 -11 5 -11 11 0 5 5 7 10 4 13
-8 8 18 -5 27 -6 5 -4 8 5 8 13 0 13 1 0 10 -13 9 -13 10 0 10 13 0 13 1 0 10
-10 6 -11 10 -2 10 6 0 12 5 12 11 0 5 -5 7 -12 3 -7 -5 -8 -3 -2 7 10 17 14
59 5 59 -4 0 -7 9 -8 20 -1 11 2 18 8 15 5 -4 9 -2 9 4 0 5 -8 15 -17 21 -15
10 -14 11 7 6 24 -5 24 -4 6 9 -14 11 -16 15 -5 15 9 0 10 3 3 8 -13 8 -13 50
-1 70 5 7 3 12 -6 12 -7 0 -14 7 -14 15 0 10 4 12 12 5 8 -6 11 -2 11 15 0 14
-3 25 -6 25 -15 0 -5 30 9 31 10 0 8 4 -6 9 -13 5 -23 12 -23 15 0 4 4 4 9 0
5 -3 12 -1 16 5 3 5 1 10 -4 10 -6 0 -11 5 -11 11 0 5 5 7 10 4 13 -8 8 18 -5
27 -6 5 -4 8 5 8 13 0 13 1 0 10 -13 9 -13 10 0 10 13 0 13 1 0 10 -10 6 -11
10 -2 10 6 0 12 5 12 11 0 5 -5 7 -12 3 -7 -5 -8 -3 -2 7 10 17 14 59 5 59 -4
0 -7 9 -8 20 -1 11 2 18 8 15 5 -4 9 -2 9 4 0 5 -8 15 -17 21 -15 10 -14 11 7
6 24 -5 24 -4 6 9 -14 11 -16 15 -5 15 9 0 10 3 3 8 -13 8 -13 50 -1 70 5 7 3
12 -6 12 -7 0 -14 7 -14 15 0 10 4 12 12 5 8 -6 11 -2 11 15 0 14 -3 25 -6 25
-15 0 -5 30 9 31 10 0 8 4 -6 9 -13 5 -23 12 -23 15 0 4 4 4 9 0 5 -3 12 -1
16 5 3 5 1 10 -4 10 -6 0 -11 5 -11 11 0 5 4 8 8 5 4 -2 9 4 9 15 1 13 -2 17
-10 12 -7 -4 -6 0 2 10 11 14 11 17 0 18 -8 0 -5 4 6 9 16 7 17 9 3 9 -22 1
-32 17 -17 27 8 5 9 3 4 -7 -7 -12 -5 -12 6 -1 12 11 12 14 0 21 -11 7 -11 9
0 14 10 4 10 6 2 6 -7 1 -13 6 -13 12 0 6 8 8 18 5 16 -6 16 -5 -1 8 -14 11
-15 15 -3 19 9 4 12 16 9 39 -2 18 -5 41 -6 51 -1 9 -4 17 -7 17 -3 0 -6 16
-6 35 0 19 5 35 11 35 5 0 3 5 -5 10 -13 9 -13 10 0 10 13 0 13 1 0 10 -10 6
-11 10 -2 10 6 0 12 5 12 11 0 5 -5 7 -12 3 -7 -5 -8 -3 -2 7 10 17 14 59 5
59 -4 0 -7 9 -8 20 -1 11 2 18 8 15 5 -4 9 -2 9 4 0 5 -8 15 -17 21 -15 10
-14 11 7 6 24 -5 24 -4 6 9 -14 11 -16 15 -5 15 9 0 10 3 3 8 -13 8 -13 50 -1
70 5 7 3 12 -6 12 -7 0 -14 7 -14 15 0 10 4 12 12 5 8 -6 11 -2 11 15 0 14 -3
25 -6 25 -15 0 -5 30 9 31 10 0 8 4 -6 9 -13 5 -23 12 -23 15 0 4 4 4 9 0 5
-3 12 -1 16 5 3 5 1 10 -4 10 -6 0 -11 5 -11 11 0 5 5 7 10 4 13 -8 8 18 -5
27 -6 5 -4 8 5 8 13 0 13 1 0 10 -13 9 -13 10 0 10 13 0 13 1 0 10 -10 6 -11
10 -2 10 6 0 12 5 12 11 0 5 -5 7 -12 3 -7 -5 -8 -3 -2 7 10 17 14 59 5 59 -4
0 -7 9 -8 20 -1 11 2 18 8 15 5 -4 9 -2 9 4 0 5 -8 15 -17 21 -15 10 -14 11 7
6 24 -5 24 -4 6 9 -14 11 -16 15 -5 15 9 0 10 3 3 8 -13 8 -13 50 -1 70 5 7 3
12 -6 12 -7 0 -14 7 -14 15 0 10 4 12 12 5 8 -6 11 -2 11 15 0 14 -3 25 -6 25
-15 0 -5 30 9 31 10 0 8 4 -7 9 -12 5 -22 12 -22 15 0 4 4 4 9 0 5 -3 12 -1
16 5 3 5 1 10 -4 10 -6 0 -11 5 -11 11 0 5 5 7 10 4 13 -8 8 18 -5 27 -6 5 -4
8 5 8 13 0 13 1 0 10 -13 9 -13 10 0 10 13 0 13 1 0 10 -10 6 -11 10 -2 10 6
0 12 5 12 10 0 6 -6 10 -13 10 -8 0 -14 7 -14 15 0 10 4 12 12 5 8 -6 11 -2
11 15 0 14 -4 25 -10 25 -5 0 -6 3 -3 6 3 4 1 16 -5 28 -10 18 -9 19 3 9 13
-10 15 -8 15 12 0 14 -3 25 -6 25 -15 0 -5 30 9 31 10 0 8 4 -6 9 -13 5 -23
12 -23 15 0 4 4 4 9 0 5 -3 12 -1 16 5 3 5 1 10 -4 10 -6 0 -11 5 -11 11 0 5
5 7 10 4 13 -8 8 18 -5 27 -6 5 -4 8 5 8 13 0 13 1 0 10 -13 9 -13 10 0 10 13
0 13 1 0 10 -10 6 -11 10 -2 10 6 0 12 5 12 11 0 5 -5 7 -12 3 -7 -5 -8 -3 -2
7 10 17 14 59 5 59 -4 0 -7 9 -8 20 -1 11 2 18 8 15 5 -4 9 -2 9 4 0 5 -8 15
-17 21 -15 10 -14 11 7 6 24 -5 24 -4 6 9 -14 11 -16 15 -5 15 9 0 10 3 3 8
-13 8 -13 50 -1 70 5 7 3 12 -6 12 -7 0 -14 7 -14 15 0 10 4 12 12 5 8 -6 11
-2 11 15 0 14 -3 25 -6 25 -15 0 -5 30 9 31 10 0 8 4 -6 9 -13 5 -23 12 -23
15 0 4 4 4 9 0 5 -3 12 -1 16 5 3 5 1 10 -4 10 -6 0 -11 5 -11 11 0 5 5 7 10
4 13 -8 8 18 -5 27 -6 5 -4 8 5 8 13 0 13 1 0 10 -13 9 -13 10 0 10 13 0 13 1
0 10 -10 6 -11 10 -2 10 6 0 12 5 12 11 0 5 -5 7 -12 3 -7 -5 -8 -3 -2 7 10
17 14 59 5 59 -4 0 -7 9 -8 20 -1 11 2 18 8 15 5 -4 9 -2 9 4 0 5 -8 15 -17
21 -15 10 -14 11 7 6 24 -5 24 -4 6 9 -14 11 -16 15 -5 15 9 0 10 3 3 8 -13 8
-13 50 -1 70 5 7 3 12 -6 12 -7 0 -14 7 -14 15 0 10 4 12 12 5 8 -6 11 -2 11
15 0 14 -3 25 -6 25 -15 0 -5 30 9 31 10 0 8 4 -6 9 -13 5 -23 12 -23 15 0 4
4 4 9 0 5 -3 12 -1 16 5 3 5 1 10 -4 10 -6 0 -11 5 -11 11 0 5 5 7 10 4 13 -8
8 18 -5 27 -6 5 -4 8 5 8 13 0 13 1 0 10 -13 9 -13 10 0 10 13 0 13 1 0 10
-10 6 -11 10 -2 10 6 0 12 5 12 10 0 6 -6 10 -13 10 -8 0 -14 7 -14 15 0 10 4
12 12 5 8 -6 11 -2 11 15 0 14 -4 25 -10 25 -5 0 -6 3 -3 6 3 4 1 16 -5 28
-10 18 -9 19 3 9 13 -10 15 -8 15 12 0 14 -3 25 -6 25 -15 0 -5 30 9 31 10 0
8 4 -6 9 -13 5 -23 12 -23 15 0 4 4 4 9 0 5 -3 12 -1 16 5 3 5 1 10 -4 10 -6
0 -11 5 -11 11 0 5 4 8 8 5 4 -2 8 6 8 20 0 13 -4 24 -8 24 -4 0 -8 5 -8 11 0
5 4 8 8 5 5 -3 9 1 9 9 0 8 -3 15 -7 15 -4 0 -7 7 -7 15 0 18 13 20 20 3 4
-10 6 -10 6 0 1 7 -6 15 -15 19 -13 5 -13 7 -2 14 11 7 10 11 -2 19 -13 9 -13
10 0 10 12 0 12 2 1 9 -8 5 -9 11 -3 15 12 7 11 24 -2 45 -7 11 -5 13 10 8 18
-7 18 -6 2 7 -19 14 -25 32 -8 21 6 -3 10 -1 10 4 0 6 -5 11 -11 11 -5 0 -7 5
-4 10 4 6 11 7 17 4 7 -4 8 -2 4 5 -4 6 -12 8 -18 5 -7 -5 -8 -2 -2 7 10 17
13 79 4 79 -15 0 -6 30 9 31 10 0 7 4 -7 10 -13 5 -20 13 -17 19 9 15 18 12 9
-2 -4 -7 -3 -9 2 -5 14 13 13 59 -2 53 -8 -3 -11 0 -7 9 3 8 9 12 14 9 15 -9
10 3 -8 17 -10 8 -14 9 -10 2 4 -6 4 -14 -1 -17 -4 -2 -8 6 -8 19 0 13 4 21 8
19 4 -3 8 0 8 5 0 6 -6 11 -12 11 -9 0 -8 4 2 10 13 9 13 10 0 10 -13 0 -13 1
0 10 12 8 10 10 -10 11 -14 0 -19 3 -12 6 6 2 12 9 12 15 0 6 -6 8 -14 5 -10
-4 -12 0 -9 14 3 10 10 19 15 19 5 0 6 5 3 10 -4 6 -10 8 -15 5 -5 -3 -12 0
-16 6 -4 8 -3 9 4 5 7 -4 12 -2 12 3 0 6 -5 11 -12 11 -9 0 -9 3 0 12 7 7 12
17 12 23 0 5 -5 3 -10 -5 -7 -11 -10 -11 -10 -2 0 8 -5 10 -12 6 -10 -6 -10
-5 -1 8 11 12 9 18 -8 34 -11 10 -25 28 -31 39 -8 16 -6 16 9 -3 18 -22 19
-22 19 -3 0 11 -2 18 -4 16 -3 -2 -12 3 -21 12 -10 11 -12 18 -4 20 7 3 2 14
-12 29 -14 15 -29 23 -36 18 -8 -4 -9 -3 -5 4 4 7 2 12 -4 12 -6 0 -8 5 -4 12
5 7 2 9 -8 6 -8 -4 -15 0 -15 8 0 7 3 11 7 9 4 -2 7 2 7 10 0 8 -2 13 -5 10
-5 -5 -62 23 -62 30 0 2 8 2 18 -1 9 -3 7 1 -6 8 -12 8 -19 18 -15 23 4 5 -1
3 -11 -5 -13 -10 -17 -10 -12 -2 4 6 3 12 -3 12 -6 0 -7 7 -4 17 4 11 3 14 -5
9 -7 -4 -12 -2 -12 5 0 7 -8 9 -21 6 -16 -4 -18 -3 -8 9 9 11 9 14 0 14 -7 0
-9 5 -5 11 4 7 -1 7 -16 -1 -20 -11 -21 -10 -15 12 7 21 7 22 -10 8 -17 -14
-18 -13 -12 2 4 12 2 15 -9 11 -7 -3 -14 0 -14 7 0 6 -4 9 -9 6 -13 -8 -42 4
-35 15 3 5 -2 9 -11 9 -9 0 -14 4 -11 9 3 4 -6 6 -19 3 -17 -3 -27 1 -31 12
-3 9 -10 16 -16 16 -5 0 -6 -6 -3 -12 4 -7 -2 -3 -13 10 -20 22 -39 31 -27 12
3 -5 2 -10 -3 -10 -5 0 -14 10 -21 23 -6 12 -9 14 -7 5 4 -12 1 -15 -10 -11
-7 3 -14 13 -15 22 0 10 -2 11 -6 4 -3 -9 -10 -10 -23 -3 -13 7 -21 7 -26 -2
-5 -7 -3 -8 6 -3 9 6 11 4 5 -5 -6 -10 -12 -9 -24 6 -19 24 -61 26 -62 4 0 -9
-4 -6 -9 8 -5 12 -12 22 -15 22 -4 0 -4 -4 -1 -9 3 -5 -1 -11 -9 -15 -8 -3
-15 -1 -15 4 0 6 -5 10 -11 10 -5 0 -7 -4 -4 -10 3 -5 1 -10 -4 -10 -6 0 -11
4 -11 8 0 5 -7 9 -15 9 -8 0 -12 -4 -9 -9 7 -10 1 -10 -31 2 -17 7 -24 7 -20
0 3 -6 1 -10 -4 -10 -6 0 -11 5 -11 11 0 5 -5 7 -12 3 -8 -5 -9 -1 -5 12 7 18
6 18 -7 1 -10 -14 -15 -15 -19 -5 -4 10 -6 10 -6 -1 -1 -11 -6 -10 -22 5 -15
14 -20 15 -17 4 2 -9 -3 -14 -12 -11 -8 2 -33 4 -55 5 -22 1 -45 5 -52 9 -6 4
-14 3 -18 -3 -4 -6 -11 -7 -17 -4 -7 5 -9 2 -5 -8 6 -17 -16 -19 -30 -3 -4 4
-2 5 4 1 9 -5 11 -2 6 9 -4 13 -8 14 -14 4 -6 -10 -11 -10 -26 1 -17 14 -17
14 0 -6 16 -20 16 -21 -3 -19 -11 1 -23 5 -27 10 -5 4 -2 5 6 0 10 -5 12 -4 7
4 -4 6 -12 8 -18 5 -6 -4 -15 0 -20 7 -8 11 -9 10 -5 -3 3 -9 -1 -19 -9 -22
-8 -3 -13 -2 -10 2 2 4 1 14 -5 22 -7 13 -9 12 -9 -2 0 -9 -5 -20 -12 -24 -7
-5 -8 -3 -3 6 6 10 1 12 -24 7 -18 -4 -30 -3 -26 2 3 5 0 13 -6 17 -7 4 -9 3
-6 -3 4 -6 0 -14 -9 -17 -22 -8 -26 -8 -19 3 3 5 1 12 -4 15 -5 4 -13 1 -17
-5 -5 -8 -3 -9 6 -4 8 5 11 4 6 -3 -4 -6 -13 -9 -21 -6 -8 4 -12 11 -8 18 4 6
-1 5 -11 -3 -15 -13 -19 -13 -27 0 -5 8 -9 10 -9 5 0 -5 8 -19 18 -30 13 -16
14 -18 1 -8 -9 7 -24 10 -33 6 -9 -3 -16 -1 -16 6 0 6 5 8 12 4 7 -5 8 -3 3 6
-6 10 -11 9 -22 -5 -7 -11 -13 -13 -13 -7 0 7 -5 12 -11 12 -5 0 -7 -4 -4 -10
3 -5 1 -10 -4 -10 -6 0 -11 5 -11 11 0 8 -5 8 -15 -1 -12 -10 -15 -10 -16 1 0
8 -4 5 -9 -6 -7 -16 -9 -17 -9 -3 -1 9 -6 20 -13 24 -6 4 -8 3 -5 -3 4 -6 0
-13 -8 -17 -8 -3 -15 -1 -15 4 0 6 -5 10 -11 10 -5 0 -7 -5 -3 -12 5 -7 3 -8
-7 -2 -21 13 -43 11 -51 -6 -5 -13 -7 -12 -7 2 -1 17 -41 22 -41 5 0 -5 -8 -3
-17 4 -11 10 -14 10 -9 2 4 -7 2 -13 -3 -13 -6 0 -11 4 -11 8 0 5 -7 9 -15 9
-8 0 -12 -4 -9 -9 3 -4 0 -8 -5 -8 -6 0 -11 5 -11 11 0 8 -6 7 -17 -2 -9 -8
-14 -9 -11 -4 6 9 -8 11 -55 6 -5 -1 -5 -7 -1 -13 6 -10 5 -10 -7 -1 -8 6 -27
10 -42 9 -15 -2 -27 1 -27 5 0 5 -5 9 -11 9 -5 0 -7 -4 -4 -10 3 -5 1 -10 -4
-10 -6 0 -11 5 -11 11 0 8 -5 8 -15 -1 -12 -10 -15 -10 -16 1 0 8 -4 5 -9 -6
-7 -16 -9 -17 -9 -3 -1 16 -41 22 -41 6 0 -9 -30 -6 -47 5 -7 5 -13 4 -13 -2
0 -14 -30 -7 -42 10 -8 11 -9 11 -4 -3 3 -10 1 -18 -4 -18 -6 0 -10 5 -10 11
0 8 -5 7 -16 -2 -9 -7 -18 -9 -22 -3 -10 13 -35 17 -27 4 3 -5 1 -10 -4 -10
-6 0 -11 5 -11 11 0 8 -6 7 -17 -2 -9 -8 -14 -9 -11 -4 6 9 -8 11 -55 6 -5 -1
-5 -7 -1 -13 6 -10 5 -10 -7 -1 -8 6 -27 10 -42 9 -15 -2 -27 1 -27 5 0 5 -5
9 -11 9 -5 0 -7 -4 -4 -10 3 -5 1 -10 -4 -10 -6 0 -11 5 -11 11 0 8 -5 8 -15
-1 -12 -10 -15 -10 -16 1 0 8 -4 5 -9 -6 -7 -16 -9 -17 -9 -3 -1 9 -6 20 -13
24 -6 4 -8 3 -5 -3 4 -6 0 -13 -8 -17 -8 -3 -15 -1 -15 4 0 6 -5 10 -11 10 -5
0 -7 -5 -3 -12 5 -7 3 -8 -7 -2 -21 13 -43 11 -51 -6 -5 -13 -7 -12 -7 2 -1
17 -41 22 -41 5 0 -5 -8 -3 -17 4 -11 10 -14 10 -9 2 4 -7 2 -13 -3 -13 -6 0
-11 4 -11 8 0 5 -7 9 -15 9 -8 0 -12 -4 -9 -9 3 -4 0 -8 -5 -8 -6 0 -11 5 -11
11 0 8 -6 7 -17 -2 -9 -8 -14 -9 -11 -4 6 9 -8 11 -55 6 -5 -1 -5 -7 -1 -13 6
-10 5 -10 -7 -1 -8 6 -27 10 -42 9 -15 -2 -27 1 -27 5 0 5 -5 9 -11 9 -5 0 -7
-4 -4 -10 3 -5 1 -10 -4 -10 -6 0 -11 5 -11 11 0 8 -5 8 -15 -1 -12 -10 -15
-10 -16 1 0 8 -4 5 -9 -6 -7 -16 -9 -17 -9 -3 -1 16 -41 22 -41 6 0 -9 -30 -6
-47 5 -7 5 -13 4 -13 -2 0 -14 -30 -7 -42 10 -8 11 -9 11 -4 -3 3 -10 1 -18
-4 -18 -6 0 -10 5 -10 11 0 8 -5 7 -16 -2 -9 -7 -18 -9 -22 -3 -10 13 -35 17
-27 4 3 -5 1 -10 -4 -10 -6 0 -11 5 -11 11 0 8 -6 7 -17 -2 -9 -8 -14 -9 -11
-4 6 9 -8 11 -55 6 -5 -1 -5 -7 -1 -13 6 -10 5 -10 -7 -1 -8 6 -27 10 -42 9
-15 -2 -27 1 -27 5 0 5 -5 9 -11 9 -5 0 -7 -4 -4 -10 3 -5 1 -10 -4 -10 -6 0
-11 5 -11 11 0 8 -5 8 -15 -1 -12 -10 -15 -10 -16 1 0 8 -4 5 -9 -6 -7 -16 -9
-17 -9 -3 -1 9 -6 20 -13 24 -6 4 -8 3 -5 -3 4 -6 0 -13 -8 -17 -8 -3 -15 -1
-15 4 0 6 -5 10 -11 10 -5 0 -7 -5 -3 -12 5 -7 3 -8 -7 -2 -21 13 -43 11 -51
-6 -5 -13 -7 -12 -7 2 -1 17 -41 22 -41 5 0 -5 -8 -3 -17 4 -11 10 -14 10 -9
2 4 -7 2 -13 -3 -13 -6 0 -11 4 -11 8 0 5 -7 9 -15 9 -8 0 -12 -4 -9 -9 3 -4
0 -8 -5 -8 -6 0 -11 5 -11 11 0 8 -6 7 -17 -2 -9 -8 -14 -9 -10 -3 4 7 -6 9
-29 8 -23 -2 -32 0 -28 8 4 7 3 8 -5 4 -9 -6 -9 -11 0 -22 10 -12 9 -13 -5 -8
-9 3 -16 11 -16 16 0 6 -6 5 -15 -2 -12 -10 -15 -10 -16 1 0 8 -4 5 -9 -6 -7
-16 -9 -17 -9 -3 -1 16 -41 23 -41 6 0 -3 -9 -6 -19 -5 -11 0 -18 4 -15 8 2 4
-3 10 -12 13 -12 5 -15 2 -10 -10 5 -14 4 -15 -9 -4 -8 7 -12 17 -8 23 3 6 1
7 -6 3 -6 -4 -9 -11 -6 -16 8 -13 -26 -21 -41 -9 -8 6 -14 8 -14 4 0 -4 -7 -1
-17 6 -15 13 -15 12 -5 -7 9 -16 8 -21 -3 -21 -8 0 -12 4 -9 9 3 4 -2 8 -10 8
-9 0 -16 5 -16 11 0 5 -5 7 -10 4 -6 -4 -8 -10 -6 -14 3 -4 -1 -8 -9 -8 -8 0
-12 4 -10 8 3 3 -3 6 -13 5 -9 0 -20 -8 -24 -16 -6 -13 -7 -12 -7 1 -1 11 -9
16 -25 15 -18 -1 -22 -4 -14 -13 15 -19 2 -16 -17 3 -12 13 -19 14 -30 4 -9
-7 -15 -8 -15 -2 0 5 -11 9 -24 8 -18 -1 -22 -4 -14 -14 8 -9 7 -11 -6 -6 -9
3 -16 10 -16 14 0 5 -9 8 -20 7 -11 -1 -20 -4 -20 -8 0 -3 -18 -6 -39 -5 -22
0 -37 4 -35 7 2 4 -4 6 -14 5 -9 0 -20 -8 -24 -16 -6 -13 -7 -12 -7 1 -1 11
-9 16 -25 15 -18 -1 -22 -4 -14 -13 15 -19 2 -16 -17 3 -12 13 -19 14 -30 4
-9 -7 -15 -8 -15 -2 0 5 -11 9 -24 8 -18 -1 -22 -4 -14 -14 8 -9 7 -11 -6 -6
-9 3 -16 10 -16 14 0 5 -9 8 -20 7 -11 -1 -20 -4 -20 -8 0 -3 -18 -6 -39 -5
-22 0 -37 4 -35 7 2 4 -4 6 -14 5 -9 0 -20 -8 -24 -16 -6 -13 -7 -12 -7 1 -1
11 -9 16 -25 15 -18 -1 -22 -4 -14 -13 15 -19 2 -16 -17 3 -12 13 -19 14 -30
4 -9 -7 -15 -8 -15 -2 0 5 -11 9 -24 8 -18 -1 -22 -4 -14 -14 8 -9 7 -11 -6
-6 -9 3 -16 10 -16 14 0 5 -9 8 -20 7 -11 -1 -20 -5 -20 -9 0 -9 -43 -4 -61 8
-8 4 -9 3 -5 -4 4 -7 2 -12 -3 -12 -6 0 -11 4 -11 8 0 5 -7 9 -15 9 -8 0 -12
-4 -9 -9 3 -4 0 -8 -5 -8 -6 0 -11 5 -11 11 0 8 -6 7 -17 -2 -9 -8 -14 -9 -11
-4 6 9 -8 11 -55 6 -5 -1 -5 -7 -1 -13 6 -10 5 -10 -7 -1 -8 6 -27 10 -42 9
-15 -2 -27 1 -27 5 0 5 -5 9 -11 9 -5 0 -7 -4 -4 -10 3 -5 1 -10 -4 -10 -6 0
-11 5 -11 11 0 8 -5 8 -15 -1 -12 -10 -15 -10 -16 1 0 8 -4 5 -9 -6 -7 -16 -9
-17 -9 -3 -1 9 -6 20 -13 24 -6 4 -8 3 -5 -3 4 -6 0 -13 -8 -17 -8 -3 -15 -1
-15 4 0 6 -5 10 -11 10 -5 0 -7 -5 -3 -12 5 -7 3 -8 -7 -2 -21 13 -43 11 -51
-6 -5 -13 -7 -12 -7 2 -1 17 -41 22 -41 5 0 -5 -8 -3 -17 4 -11 10 -14 10 -9
2 4 -7 2 -13 -3 -13 -6 0 -11 4 -11 8 0 5 -7 9 -15 9 -8 0 -12 -4 -9 -9 3 -4
0 -8 -5 -8 -6 0 -11 5 -11 11 0 8 -6 7 -17 -2 -9 -8 -14 -9 -11 -4 6 9 -8 11
-55 6 -5 -1 -5 -7 -1 -13 6 -10 5 -10 -7 -1 -8 6 -27 10 -42 9 -15 -2 -27 1
-27 5 0 5 -5 9 -11 9 -5 0 -7 -4 -4 -10 3 -5 1 -10 -4 -10 -6 0 -11 5 -11 11
0 8 -5 8 -15 -1 -12 -10 -15 -10 -16 1 0 8 -4 5 -9 -6 -7 -16 -9 -17 -9 -3 -1
16 -41 22 -41 6 0 -9 -30 -6 -47 5 -7 5 -13 4 -13 -2 0 -14 -30 -7 -42 10 -8
11 -9 11 -4 -3 3 -10 1 -18 -4 -18 -6 0 -10 5 -10 11 0 8 -5 7 -16 -2 -9 -7
-18 -9 -22 -3 -10 13 -35 17 -27 4 3 -5 1 -10 -4 -10 -6 0 -11 5 -11 11 0 8
-6 7 -17 -2 -9 -8 -14 -9 -11 -4 6 9 -8 11 -55 6 -5 -1 -5 -7 -1 -13 6 -10 5
-10 -7 -1 -8 6 -27 10 -42 9 -15 -2 -27 1 -27 5 0 5 -5 9 -11 9 -5 0 -7 -4 -4
-10 3 -5 1 -10 -4 -10 -6 0 -11 5 -11 11 0 8 -5 8 -15 -1 -12 -10 -15 -10 -16
1 0 8 -4 5 -9 -6 -7 -16 -9 -17 -9 -3 -1 9 -6 20 -13 24 -6 4 -8 3 -5 -3 4 -6
0 -13 -8 -17 -8 -3 -15 -1 -15 4 0 6 -5 10 -11 10 -5 0 -7 -5 -3 -12 5 -7 3
-8 -7 -2 -21 13 -43 11 -51 -6 -5 -13 -7 -12 -7 2 -1 17 -41 22 -41 5 0 -5 -8
-3 -17 4 -11 10 -14 10 -9 2 4 -7 2 -13 -3 -13 -6 0 -11 4 -11 8 0 5 -7 9 -15
9 -8 0 -12 -4 -9 -9 3 -4 0 -8 -5 -8 -6 0 -11 5 -11 11 0 8 -6 7 -17 -2 -9 -8
-14 -9 -11 -4 6 9 -8 11 -55 6 -5 -1 -5 -7 -1 -13 6 -10 5 -10 -7 -1 -8 6 -27
10 -42 9 -15 -2 -27 1 -27 5 0 5 -5 9 -11 9 -5 0 -7 -4 -4 -10 3 -5 1 -10 -4
-10 -6 0 -11 5 -11 11 0 8 -5 8 -15 -1 -12 -10 -15 -10 -16 1 0 8 -4 5 -9 -6
l-9 -20 0 20 c-1 17 -3 17 -11 5 -5 -8 -10 -10 -10 -5 0 6 -10 16 -22 24 -23
14 -23 14 -5 -7z m5841 -13 c-3 -5 -10 -7 -15 -3 -5 3 -7 10 -3 15 3 5 10 7
15 3 5 -3 7 -10 3 -15z m-6264 -129 c-8 -5 -19 -10 -25 -10 -5 0 -3 5 5 10 8
5 20 10 25 10 6 0 3 -5 -5 -10z m7280 -265 c14 -19 14 -19 -2 -6 -10 7 -18 18
-18 24 0 6 1 8 3 6 1 -2 9 -13 17 -24z m-7702 -714 c-7 -9 -13 -18 -15 -20 -1
-2 -1 5 0 16 0 11 7 20 14 20 10 0 10 -4 1 -16z m12 -225 c0 -2 -8 -10 -17
-17 -16 -13 -17 -12 -4 4 13 16 21 21 21 13z m-15 -675 c3 -5 2 -12 -3 -15 -5
-3 -9 1 -9 9 0 17 3 19 12 6z m0 -40 c3 -5 2 -12 -3 -15 -5 -3 -9 1 -9 9 0 17
3 19 12 6z m7839 -1857 c3 -8 2 -12 -4 -9 -6 3 -10 10 -10 16 0 14 7 11 14 -7z
m-7824 -1790 c0 -8 -19 -13 -24 -6 -3 5 1 9 9 9 8 0 15 -2 15 -3z m-5 -804
c-3 -5 -12 -10 -18 -10 -7 0 -6 4 3 10 19 12 23 12 15 0z m7645 -1134 c0 -3
-4 -8 -10 -11 -5 -3 -10 -1 -10 4 0 6 5 11 10 11 6 0 10 -2 10 -4z m-268 -218
c-7 -7 -12 -8 -12 -2 0 14 12 26 19 19 2 -3 -1 -11 -7 -17z m-161 -55 c13 -16
12 -17 -3 -4 -10 7 -18 15 -18 17 0 8 8 3 21 -13z m-6281 -27 c0 -2 -8 -10
-17 -17 -16 -13 -17 -12 -4 4 13 16 21 21 21 13z m1595 -17 c-4 -5 -12 -9 -18
-8 -9 0 -8 2 1 6 6 2 9 10 6 15 -4 7 -2 8 5 4 6 -4 9 -12 6 -17z m80 2 c-3 -6
-11 -11 -16 -11 -5 0 -4 6 3 14 14 16 24 13 13 -3z m1356 -4 c-10 -9 -11 -8
-5 6 3 10 9 15 12 12 3 -3 0 -11 -7 -18z m99 19 c0 -2 -8 -10 -17 -17 -16 -13
-17 -12 -4 4 13 16 21 21 21 13z m-2935 -16 c-3 -5 -12 -10 -18 -10 -7 0 -6 4
3 10 19 12 23 12 15 0z"/>
<path d="M4890 9110 c0 -5 5 -10 11 -10 5 0 7 5 4 10 -3 6 -8 10 -11 10 -2 0
-4 -4 -4 -10z"/>
<path d="M1890 9101 c0 -7 -5 -9 -12 -5 -7 5 -8 3 -3 -5 5 -9 10 -10 18 -2 6
6 8 14 4 18 -4 3 -7 1 -7 -6z"/>
<path d="M8510 9040 c0 -5 5 -10 11 -10 5 0 7 5 4 10 -3 6 -8 10 -11 10 -2 0
-4 -4 -4 -10z"/>
<path d="M1310 8679 c0 -5 5 -7 10 -4 6 3 10 8 10 11 0 2 -4 4 -10 4 -5 0 -10
-5 -10 -11z"/>
<path d="M1188 8293 c7 -3 16 -2 19 1 4 3 -2 6 -13 5 -11 0 -14 -3 -6 -6z"/>
<path d="M1170 6919 c0 -5 5 -7 10 -4 6 3 10 8 10 11 0 2 -4 4 -10 4 -5 0 -10
-5 -10 -11z"/>
<path d="M1170 2996 c0 -2 7 -7 16 -10 8 -3 12 -2 9 4 -6 10 -25 14 -25 6z"/>
<path d="M1320 1519 c0 -5 5 -7 10 -4 6 3 10 8 10 11 0 2 -4 4 -10 4 -5 0 -10
-5 -10 -11z"/>
<path d="M1670 1230 c0 -5 5 -10 11 -10 5 0 7 5 4 10 -3 6 -8 10 -11 10 -2 0
-4 -4 -4 -10z"/>
<path d="M8245 1151 c-3 -5 -2 -12 3 -15 5 -3 9 1 9 9 0 17 -3 19 -12 6z"/>
<path d="M5600 1120 c-9 -6 -10 -10 -3 -10 6 0 15 5 18 10 8 12 4 12 -15 0z"/>
</g>
</svg>
